<svg width="200" height="229" viewBox="0 0 200 229" fill="none" xmlns="http://www.w3.org/2000/svg">
<path d="M30.6949 134.457C19.8139 130.304 11.025 119.277 6.12087 108.927C0.549453 97.1702 -2.38583 86.7648 2.42057 73.9148C10.3336 52.7587 31.5895 36.8103 51.383 27.3986C53.1625 26.5525 63.5983 21.9037 65.1194 22.3674C65.8092 22.5776 70.4801 32.7261 70.9314 34.0452C73.2523 33.3789 76.4028 32.9644 78.8095 32.4697C84.2283 31.3559 90.1221 30.5641 95.4867 29.4048C99.6193 41.2879 102.811 56.621 101.679 69.2366C103.281 71.4247 105.577 73.5292 107.33 75.7916C113.262 83.4468 117.572 91.9355 119.362 101.517C119.638 102.993 120.131 105.709 120.161 107.149C122.047 107.068 123.951 107.147 125.844 107.221C144.23 107.945 163.843 111.745 177.868 124.525C187.614 133.406 192.639 145.172 196.594 157.429C198.085 162.007 199.731 166.182 199.907 171.111C200.14 177.653 197.949 183.228 193.507 187.99C190.959 190.766 187.873 192.996 184.437 194.542C180.632 196.228 173.748 198.323 169.594 199.711L105.903 221.049C99.1138 223.326 86.6051 228.305 80.0205 228.509C72.993 228.782 66.1539 226.2 61.0608 221.35C53.7714 214.457 50.7923 203.537 47.9277 194.184C45.0799 184.879 42.46 175.506 40.07 166.074C38.7431 160.836 37.5917 155.428 36.1951 150.235C35.0386 145.934 31.8029 141.369 31.2453 136.546C31.1947 136.109 30.8335 134.893 30.6949 134.457ZM83.3465 62.7677C78.3394 69.8899 73.8437 75.0122 67.9414 81.4622C66.3219 82.9223 64.7406 84.4152 63.3116 86.0668C58.2976 81.8322 51.9127 79.51 46.128 83.1923C36.7579 89.5149 45.4227 106.502 49.4094 113.727C54.2495 122.499 58.333 132.035 63.3535 140.499C77.9016 144.832 97.1336 147.092 108.206 133.756C114.34 126.368 114.56 117.015 113.747 107.935C112.299 91.7732 103.12 78.616 90.9623 68.4603C88.3302 66.217 85.8505 64.7719 83.3465 62.7677ZM120.338 120.664C122.297 122.5 124.391 124.368 126.188 126.351C132.083 132.857 136.99 141.555 139.194 150.092C136.909 149.66 134.24 149.51 131.896 149.295L120.553 148.235C119.291 148.116 115.555 147.849 114.497 147.572C116.355 153.341 118.26 159.096 120.211 164.835L108.227 168.867C106.289 169.513 103.561 170.33 101.71 171.078C100.107 166.139 98.2074 160.022 96.406 155.236C94.4883 157.362 85.0551 167.51 84.1212 169.344C81.8162 163.086 79.8818 156.344 77.5647 150.234C74.2565 149.648 70.8731 149.208 67.6166 148.428L95.0584 195.161C100.789 189.857 104.631 187.977 112.576 186.685C114.178 186.425 116.389 186.51 117.692 185.719C120.774 183.848 123.817 181.717 126.803 179.697L144.812 167.508C148.062 165.311 152.157 162.371 155.494 160.468C151.719 153.933 147.213 147.482 143.235 141.038C141.941 138.943 140.172 136.443 138.987 134.359C138.046 132.885 136.904 130.985 135.868 129.621C137.585 128.328 139.565 127.179 141.408 126.055C147.393 135.946 154.555 146.721 160.863 156.492C162.758 155.37 164.832 154.111 166.622 152.824C167.821 154.558 169.076 156.324 170.205 158.099C168.201 159.773 165.171 161.721 162.946 163.227L151.072 171.229C141.691 177.55 131.606 184.713 122.171 190.791C123.431 195.568 125.837 202.016 127.448 206.874L163.782 194.735C168.074 193.296 172.392 191.807 176.704 190.399C183.015 188.338 188.613 185.521 191.718 179.367C195.204 172.455 192.487 165.551 190.196 158.794C184.997 142.628 177.907 129.395 161.879 121.571C152.013 116.755 141.581 114.894 130.671 114.025C128.008 113.813 122.81 113.862 120.595 113.552C120.663 115.794 120.597 118.433 120.338 120.664ZM129.444 142.485C127.355 139.068 122.148 130.213 118.913 128.437L118.567 128.437C116.483 133.89 114.715 136.453 110.83 140.853C114.064 140.962 117.684 141.382 120.939 141.695C123.772 141.973 126.608 142.236 129.444 142.485ZM101.544 149.517C102.209 152.721 104.66 159.256 105.792 162.713C106.85 162.361 108.01 161.946 109.074 161.643L111.92 160.682C110.509 156.372 108.95 151.282 107.358 147.08C105.995 146.867 105.462 146.793 104.078 146.822C102.997 147.782 102.474 148.41 101.544 149.517ZM41.8475 114.345C34.9883 123.219 35.7767 134.408 40.7408 144.033C43.5029 143.985 46.2637 143.884 49.0217 143.732C51.7996 143.601 54.6177 143.494 57.3902 143.331C53.5743 136.324 50.0678 128.982 46.33 121.923C45.7083 120.748 42.8405 114.872 42.2668 114.301L41.8475 114.345ZM86.634 156.349C87.8075 154.89 88.7291 153.864 90.0262 152.509L92.495 149.7C89.5438 150.017 87.6395 150.413 84.638 150.43C85.2346 152.429 85.8235 154.421 86.634 156.349ZM91.3449 201.886L72.3562 169.438C71.5156 168.006 61.194 149.953 60.4928 149.945C55.3804 149.88 48.2585 150.268 43.179 150.623C43.174 151.963 44.9113 158.658 45.3489 160.409C48.0645 171.354 51.069 182.225 54.3591 193.01C58.3241 205.747 62.6276 221.795 78.9635 222.086C82.849 222.155 86.9898 220.493 90.6534 219.26C90.4863 218.511 90.2189 217.531 90.2449 216.786C89.5778 210.935 89.7402 207.573 91.3449 201.886ZM105.334 195.552C96.0465 200.77 95.9746 207.403 96.7911 217.106C100.381 215.982 103.956 214.808 107.513 213.584C112.043 212.064 116.76 210.553 121.253 208.967L115.903 192.894C111.974 193.36 108.98 193.923 105.334 195.552Z" fill="white"/>
<path d="M102.468 110.848C103.606 110.675 107.234 111.669 108.285 112.21C108.64 112.816 108.621 113.312 108.419 114.035C107.403 117.678 106.72 121.954 103.267 124.114C100.448 125.877 96.173 124.388 93.131 123.645C91.5688 126.213 89.8047 129.937 88.4124 132.682L88.1315 133.067C87.2334 133.252 83.5821 131.21 82.3948 130.671C82.5309 130.223 82.7542 129.563 82.9523 129.155C85.9787 122.927 87.8899 115.067 96.8364 117.761C97.8133 118.055 99.1583 118.545 100.094 118.163C100.971 117.358 102.096 112.26 102.468 110.848Z" fill="white"/>
<path d="M55.7791 101.268C58.0579 101.144 70.6496 103.151 73.7373 103.604C72.6428 108.008 71.4791 112.395 70.2463 116.762C70.0946 117.603 70.2377 117.517 69.734 118.072C68.4441 118.417 65.2466 117.172 63.4718 116.825C64.1593 114.786 65.1042 111.007 65.5402 108.905C62.4088 108.717 57.6772 107.568 54.9084 107.618C55.1708 105.498 55.461 103.381 55.7791 101.268Z" fill="white"/>
<path d="M83.8873 76.8252C85.147 76.4144 89.0089 76.3195 90.3874 76.3502L91.2298 86.5724C93.6377 86.5429 96.0457 86.5398 98.4536 86.5632C98.3576 88.2987 98.4453 91.192 98.4914 92.971C97.3205 93.3176 87.7748 92.8865 85.2008 93.2438L83.8873 76.8252Z" fill="white"/>
<path d="M30.6949 134.457C19.8139 130.304 11.025 119.277 6.12087 108.927C0.549453 97.1702 -2.38583 86.7648 2.42057 73.9148C10.3336 52.7587 31.5895 36.8103 51.383 27.3986C53.1625 26.5525 63.5983 21.9037 65.1194 22.3674C65.8092 22.5776 70.4801 32.7261 70.9314 34.0452C73.2523 33.3789 76.4028 32.9644 78.8095 32.4697C84.2283 31.3559 90.1221 30.5641 95.4867 29.4048C99.6193 41.2879 102.811 56.621 101.679 69.2366C96.566 64.3441 92.5641 61.1396 86.7638 57.1606C85.7824 58.8261 84.4443 61.2525 83.3465 62.7677C78.3394 69.8899 73.8437 75.0122 67.9414 81.4622C56.932 70.1352 35.3773 73.5494 35.476 91.616C35.5073 97.3516 36.9465 102.459 39.187 107.728C31.1343 115.423 30.1119 123.963 30.6949 134.457Z" fill="white"/>
<path d="M60.3265 54.7061C67.9 55.0533 73.5595 56.0417 80.4777 59.2161C79.7701 60.2496 78.8365 62.2703 78.2473 63.4584L77.5368 65.026C72.8867 62.6294 65.5274 61.3004 60.3463 61.3055C60.4944 59.5786 60.4006 56.4238 60.3265 54.7061Z" fill="white"/>
<path d="M52.9038 64.0103C60.0402 63.7493 65.5121 64.6879 72.0934 67.3634C71.4808 68.4241 70.7915 70.0722 70.2704 71.2326C69.9578 71.8832 69.639 72.688 69.3507 73.3624C65.5945 71.1219 57.7542 70.3543 53.4414 70.533C53.4614 69.0221 53.1026 65.4937 52.9038 64.0103Z" fill="white"/>
<path d="M137.318 0C138.512 0.242363 142.353 0.491138 143.587 0.487697C143.286 8.13661 142.067 15.9935 141.504 23.6484C141.176 28.1144 140.467 32.6785 140.322 37.1485C136.481 35.4262 132.174 33.2103 128.35 31.3421C128.516 44.1319 128.579 58.0087 128.403 70.8157C124.793 70.474 120.639 69.8027 117.009 69.2836C114.758 69.0861 112.808 68.486 110.339 68.4573C110.588 66.3242 110.873 64.1952 111.193 62.0715C113.256 62.011 119.71 63.0594 122.018 63.4329C121.655 59.8616 121.813 50.1553 121.853 46.0572C121.931 38.0422 121.544 28.6517 121.939 20.8011C125.833 22.9048 130.591 25.0982 134.616 27.1213C135.775 18.3331 136.073 8.81856 137.318 0Z" fill="white"/>
<path d="M162.286 41.9982C163.246 41.9364 166.984 44.4317 167.55 45.313C167.429 46.3554 154.509 67.1395 152.977 69.2907C149.74 67.5019 145.561 65.5305 142.205 63.8845C141.363 68.1124 140.946 72.5167 140.267 76.7793C140.048 78.1588 139.845 79.6256 139.764 81.0184C138.828 80.8168 137.721 80.6594 136.765 80.4984C135.651 80.2985 134.515 80.2553 133.385 80.1843C133.421 77.9644 134.553 70.6931 134.926 68.239C135.42 64.9865 136.2 57.6532 137.023 54.7742C138.421 53.5041 148.476 60.7491 150.745 60.2704C151.64 59.37 154.207 54.9971 154.985 53.724C157.364 49.7816 159.798 45.8726 162.286 41.9982Z" fill="white"/>
<path d="M145.366 84.2422C145.659 84.0282 145.897 84.0435 146.261 84.005C147.576 84.4974 154.403 91.6641 155.832 93.1416C160.253 88.9823 165.464 81.7106 170.068 77.4031C170.22 77.261 170.901 76.6694 171.068 76.7013C172.365 76.9466 174.917 79.6235 175.768 80.5849C172.428 84.7219 167.938 89.4952 164.337 93.5515C162.118 95.8755 158.222 100.201 156.27 102.668C155.236 101.875 153.274 99.8115 152.273 98.8068C149.955 96.4705 147.625 94.1472 145.281 91.8373C141.533 93.756 136.571 96.7108 132.89 98.8855C131.972 96.9042 130.907 94.995 129.702 93.1739C134.304 90.3762 140.622 86.6639 145.366 84.2422Z" fill="white"/>
</svg>
