<svg xmlns="http://www.w3.org/2000/svg" viewBox="0 0 451.77 351.89"><defs><style>.cls-1{fill:#c2a058;}</style></defs><g id="Layer_2" data-name="Layer 2"><g id="Layer_1-2" data-name="Layer 1"><path class="cls-1" d="M78.33,0H0V78.33a105,105,0,0,0,105,105H183.3V105A105,105,0,0,0,78.33,0Z"/><path class="cls-1" d="M32.89,282.72V347H97.16a86.14,86.14,0,0,0,86.14-86.14V196.58H119A86.14,86.14,0,0,0,32.89,282.72Z"/><path class="cls-1" d="M349,0A143,143,0,0,0,327.15,1.7a138.87,138.87,0,0,0-51,18.6A126.79,126.79,0,0,0,256,35.14c-27.43,24.3-44.62,59.3-44.62,98.23V317.2c0,17.81-18.34,18.81-18.34,27.27v.94c0,4,4,6.48,10.4,6.48h62c5.95,0,9.87-2.51,9.87-6.48v-.94C275.31,336,256,335,256,317.2V232.91h58.15a139,139,0,0,0,29.32-3.08C403,217.34,448.11,167.55,451.56,107v0c.16-2.4.21-4.91.21-7.36V0ZM258.43,133.37c0-47.6,40.66-86.32,90.61-86.32h55.7V99.57q0,3.6-.31,7.21c-3.87,44.25-42.9,79.11-90.3,79.11h-55.7Z"/></g></g></svg>