<svg xmlns="http://www.w3.org/2000/svg" viewBox="0 0 608.2 118.87"><defs><style>.cls-1{fill:#c2a058;}.cls-2{fill:#385127;}</style></defs><g id="Layer_2" data-name="Layer 2"><g id="Layer_1-2" data-name="Layer 1"><path class="cls-1" d="M26.46,0H0V26.46A35.45,35.45,0,0,0,35.46,61.92H61.91V35.46A35.45,35.45,0,0,0,26.46,0Z"/><path class="cls-2" d="M11.11,95.5v21.71H32.82A29.08,29.08,0,0,0,61.91,88.12V66.41H40.2A29.08,29.08,0,0,0,11.11,95.5Z"/><path class="cls-2" d="M181.42,105.66V3c0-2.15-1.81-4-5.12-2.32L163.42,6.92c-1.48.82-2.31,1.33-2.31,2.65V9.9c0,2.47,5.78,3.46,5.78,9.9v85.86c0,5.77-5.78,5.6-5.78,8.91v.48c0,1.33,1.16,2.16,3.15,2.16h20.29c2,0,3.31-.83,3.31-2.16v-.48C187.86,111.26,181.42,111.43,181.42,105.66Z"/><path class="cls-2" d="M264.07,104l-3.31-32.84c-2.14-21.79-14.35-34.84-34.66-34.84-18,0-29.21,9.24-29.21,18,0,3.8,2.47,6.11,6.42,6.11,8.27,0,5.62-18.81,22.79-18.81,13.2,0,18.5,10.56,20.31,30l.33,4.45c-4.46-4.12-11.56-6.59-20.31-6.59-17.16,0-30.37,8.58-30.2,24.42,0,15.85,12.53,24.94,30.7,24.94,12,0,20-4.63,23.77-11.56.65,9.07,4.62,10.89,12.05,10.89,6.11,0,10.56-1,10.56-3.46C273.31,110.6,265.06,114.24,264.07,104Zm-33.52,9.58c-11.87,0-19.8-9.58-19.8-21.62,0-10.23,7.76-17.18,19-17.18,9.75,0,16.52,5.45,18.16,13.21l.66,7.43C248.88,105.48,241.62,113.58,230.55,113.58Z"/><path class="cls-2" d="M359.11,105.33,357.3,72.8c-1.65-25.59-15.19-36.48-31.36-36.48-11.4,0-21,6-25.76,15.19V39.45c0-2.47-1.47-4.12-4.62-2.47l-12.38,6c-1.65.66-2.64,1.33-2.64,2.47v.49c0,3,6.94,2.65,6.94,9.75v50c0,5.77-6.44,5.77-6.44,8.91v.66c0,1.32,1.32,2.14,3.29,2.14H305c2.14,0,3.46-.82,3.46-2.14v-.66c0-3.14-6.59-3.14-6.59-8.91V65.54c0-13,8.4-22.78,20.62-22.78,11.4,0,19.49,9.57,20.31,29.71l1.66,33c.33,6-6,6-6,9.09v.66c0,1.32,1.33,2.14,3.48,2.14h19.64c2.15,0,3.46-.82,3.46-2.14v-.66C365.05,111.43,359.45,111.43,359.11,105.33Z"/><path class="cls-2" d="M411.52,98.07c-.66,5.6-4.94,9.9-12.22,9.9-6.11,0-10.39-4.78-10.39-13.87V44.57h22.78a2.42,2.42,0,0,0,2.47-2.47V40.44A2.54,2.54,0,0,0,411.69,38H388.91l-.17-15.68c0-2.14-.66-3.31-2.65-3.31h-1.63c-1.5,0-2.65,1.17-2.82,3.31C380.82,31.71,377,38,369.09,38h-5.94a2.25,2.25,0,0,0-2.47,2.47V42.1a2.33,2.33,0,0,0,2.47,2.47h10.9V93.93c0,16.84,8.58,24.94,21.3,24.94,13.19,0,21.13-9.91,21.13-20.16C416.48,95.75,412.51,95.58,411.52,98.07Z"/><path class="cls-2" d="M510.76,105.66,484.35,69.18c18.16-5.12,27.9-17.84,27.9-32.86C512.08,11.4,490.62,0,462.39,0H428.56c-2,0-3.31.67-3.31,2v.33c0,3.15,5.95,3.31,5.95,9.24v94.11c0,5.93-5.95,6.11-5.95,9.24v.33c0,1.32,1.32,2,3.31,2h20.8c2,0,3.3-.66,3.3-2v-.33c0-3.13-6.44-3.31-6.44-9.24V72L466,71.65a30.36,30.36,0,0,0,4.12-.18l24.77,34.19c3.79,6.11-3.31,6.11-3.31,9.24v.33c0,1.32,1.33,2,3.31,2h22.94c2,0,3.3-.66,3.3-2v-.33C521.16,111.77,515.23,111.92,510.76,105.66ZM464.55,65.05h-11.4c-4.46,0-6.93-2.31-6.93-7.76V12.39c0-3.47,1.33-5.62,4.28-5.62h11.07c18.49,0,35.33,9.92,35.33,31.69C496.9,55.13,483.69,65.05,464.55,65.05Z"/><path class="cls-2" d="M599.12,105,576.51,76.59,599,50.52c5.27-6.26,8.74-7.1,8.74-10.08V40c0-1.33-1-2-2.47-2H590.54c-1.5,0-2.47.84-2.47,2v.48c0,3,7.58,4.46,2.47,10.24L572.37,71.32l-16.5-20.64c-4.46-5.61,1.48-6.93,1.48-10.24V40c0-1.15-1-2-2.47-2H532.27c-1.32,0-2.32.66-2.32,2v.48c0,3.31,4.13,3,9.75,10.08l21.46,27.24-23.11,26.9c-6,6.77-11.23,7.26-11.23,10.08v.49c0,1.32.82,2,2.47,2h17.82c1.66,0,2.65-.83,2.65-2.16v-.31c0-2.64-8.42-2.64-2.47-9.59l18.32-21.79,17,21.46c5.27,6.61-2.49,7-2.49,9.92v.31a2.19,2.19,0,0,0,2.49,2.16h23.09c1.5,0,2.49-.66,2.49-2v-.49C608.2,111.77,603.42,110.27,599.12,105Z"/><path class="cls-2" d="M117.9,0a48.53,48.53,0,0,0-7.4.57A46.91,46.91,0,0,0,93.26,6.86a43.34,43.34,0,0,0-6.78,5A44.21,44.21,0,0,0,71.41,45.06v62.09c0,6-6.2,6.35-6.2,9.21v.32c0,1.34,1.34,2.19,3.52,2.19H89.66c2,0,3.33-.85,3.33-2.19v-.32c0-2.86-6.53-3.19-6.53-9.21V78.68h19.65a46.91,46.91,0,0,0,9.9-1c20.1-4.22,35.35-21,36.52-41.5v0c.05-.81.07-1.65.07-2.48V0ZM87.29,45.06C87.29,29,101,15.9,117.9,15.9h18.81V33.64c0,.81,0,1.62-.1,2.43-1.31,15-14.49,26.72-30.5,26.72H87.29Z"/></g></g></svg>